<svg width="1008" height="662" viewBox="0 0 1008 662" fill="none" xmlns="http://www.w3.org/2000/svg">
<path d="M722.853 593.056C869.347 593.056 988.103 474.3 988.103 327.806C988.103 181.313 869.347 62.5566 722.853 62.5566C576.36 62.5566 457.604 181.313 457.604 327.806C457.604 474.3 576.36 593.056 722.853 593.056Z" stroke="#2B2B2A" stroke-width="5" stroke-miterlimit="22.9256"/>
<path d="M875.946 531.334L858.865 539.031L830.769 518.619C830.008 518.066 829.007 517.963 828.149 518.35L828.149 518.35L818.36 522.761C816.771 523.477 816.31 525.514 817.434 526.845L836.319 549.191L820.946 556.118L810.611 550.418C809.888 550.02 809.019 549.985 808.267 550.324L802.29 553.017C800.734 553.718 800.251 555.694 801.31 557.033L813.3 571.07L815.872 589.352C816.174 591.031 817.975 591.979 819.531 591.278L825.507 588.584C826.261 588.245 826.809 587.572 826.989 586.766L829.567 575.248L844.94 568.321L849.168 597.269C849.42 598.993 851.252 599.998 852.841 599.282L862.63 594.871C863.488 594.485 864.073 593.667 864.163 592.731L867.485 558.162L884.566 550.465C889.849 548.084 896.984 539.718 894.604 534.434C892.223 529.151 881.229 528.954 875.946 531.334V531.334Z" fill="black"/>
<path d="M868.769 113.957L881.15 128.018L869.905 160.875C869.601 161.765 869.797 162.751 870.419 163.458L870.42 163.458L877.515 171.517C878.667 172.824 880.749 172.666 881.69 171.2L897.492 146.577L908.635 159.232L906.228 170.787C906.059 171.595 906.282 172.436 906.827 173.055L911.159 177.975C912.287 179.256 914.318 179.136 915.286 177.731L925.175 162.142L941.891 154.306C943.408 153.523 943.783 151.523 942.655 150.243L938.323 145.322C937.777 144.702 936.972 144.376 936.149 144.441L924.383 145.366L913.24 132.711L939.664 120.154C941.237 119.406 941.659 117.359 940.507 116.051L933.412 107.993C932.79 107.287 931.837 106.968 930.915 107.157L896.898 114.152L884.517 100.09C880.688 95.7411 870.593 91.383 866.243 95.2125C861.894 99.0419 864.94 109.607 868.769 113.957V113.957Z" fill="black"/>
<path d="M472.694 19.1996L179.471 312.423C169.191 322.703 170.72 340.9 182.887 353.067L469.277 639.457C481.444 651.624 499.641 653.154 509.921 642.874L803.145 349.65C813.425 339.37 811.895 321.173 799.729 309.006L513.338 22.616C501.171 10.4491 482.974 8.91956 472.694 19.1996Z" fill="#920000"/>
<path d="M394.488 19.1996L101.264 312.423C90.9839 322.703 92.5135 340.9 104.68 353.067L391.071 639.457C403.238 651.624 421.434 653.154 431.714 642.874L724.938 349.65C735.218 339.37 733.689 321.173 721.522 309.006L435.131 22.616C422.965 10.4491 404.768 8.91956 394.488 19.1996Z" fill="#6808FF"/>
<path d="M311.858 19.1996L18.6344 312.423C8.35436 322.703 9.88393 340.9 22.0508 353.067L308.441 639.457C320.608 651.624 338.805 653.154 349.085 642.874L642.309 349.65C652.589 339.37 651.059 321.173 638.892 309.006L352.502 22.616C340.335 10.4491 322.138 8.91956 311.858 19.1996Z" fill="white"/>
<path fill-rule="evenodd" clip-rule="evenodd" d="M23.8491 307.209L82.3801 248.678H253.701V201.021H130.036L165.364 165.693H298.329V118.037H213.02L308.442 22.6151C320.559 10.4987 340.385 10.4987 352.502 22.6151L638.893 309.007C651.01 321.124 651.01 340.95 638.893 353.067L352.502 639.458C340.386 651.575 320.559 651.575 308.442 639.458L213.021 544.037H298.329V496.38H165.365L130.037 461.052H253.701V413.396H82.3801L23.8491 354.865H542.175V307.209H23.8491V307.209Z" fill="#66CBFF"/>
<path d="M578.954 464.074V462.535C578.954 456.707 577.881 452.255 575.737 449.178C573.592 446.054 570.515 444.493 566.506 444.493C562.123 444.493 558.603 446.241 555.946 449.738C553.288 453.188 551.843 457.966 551.61 464.074H578.954ZM597.765 490.438V501.068C592.87 503.865 587.928 505.963 582.94 507.362C577.951 508.761 572.963 509.46 567.974 509.46C557.298 509.46 548.719 506.173 542.239 499.599C535.805 493.026 532.588 484.331 532.588 473.515C532.588 462.652 535.875 453.794 542.449 446.94C549.069 440.04 557.578 436.59 567.974 436.59C577.392 436.59 584.711 439.434 589.933 445.122C595.155 450.763 597.765 458.712 597.765 468.969V471.696H550.911V472.116C550.911 480.275 552.962 486.685 557.065 491.347C561.167 496.01 566.809 498.341 573.988 498.341C577.765 498.341 581.611 497.688 585.527 496.383C589.443 495.077 593.523 493.096 597.765 490.438ZM604.409 438.478H638.886V444.493L633.431 445.332L632.732 446.87L644.201 463.934L656.649 446.031L649.376 444.772V438.478H675.74V445.052L667.838 446.031L649.516 469.808L670.845 500.579L678.398 501.907V508.201H644.9V502.607L649.935 501.348L650.495 499.879L637.907 480.718L624.41 500.439L631.753 501.907V508.201H603.989V501.907L612.381 500.299L632.452 474.703L612.521 446.171L604.409 445.052V438.478ZM708.958 499.599C710.497 499.926 712.012 500.182 713.504 500.369C715.042 500.509 716.581 500.579 718.119 500.579C724.553 500.579 729.658 498.084 733.435 493.096C737.258 488.107 739.169 481.394 739.169 472.955C739.169 465.449 737.491 459.598 734.134 455.402C730.824 451.159 726.208 449.038 720.287 449.038C718.749 449.038 717.047 449.271 715.182 449.738C713.364 450.157 711.289 450.833 708.958 451.766V499.599ZM681.755 539.601V532.957L689.517 532.258L691.475 530.09V449.598H681.755V443.863L702.525 437.15H708.958V445.751C713.481 442.628 717.56 440.343 721.197 438.898C724.833 437.453 728.306 436.73 731.616 436.73C739.402 436.73 745.859 439.924 750.988 446.311C756.116 452.651 758.68 460.717 758.68 470.507C758.68 481.976 755.254 491.138 748.4 497.991C741.547 504.798 732.316 508.201 720.707 508.201C718.749 508.201 716.791 508.155 714.833 508.061C712.921 507.921 710.986 507.735 709.028 507.502L708.958 530.37L711.126 532.398L720.008 532.957V539.601H681.755ZM804.906 444.353C799.684 444.353 795.605 446.847 792.668 451.835C789.73 456.824 788.262 463.817 788.262 472.815C788.262 481.953 789.707 489.063 792.598 494.145C795.535 499.226 799.591 501.767 804.766 501.767C810.174 501.767 814.347 499.296 817.284 494.355C820.221 489.413 821.69 482.373 821.69 473.235C821.69 464.144 820.198 457.057 817.214 451.975C814.277 446.894 810.174 444.353 804.906 444.353ZM805.465 436.73C816.468 436.73 825.21 440.063 831.69 446.73C838.17 453.351 841.411 462.325 841.411 473.654C841.411 484.377 838.031 493.002 831.27 499.53C824.51 506.057 815.536 509.32 804.346 509.32C793.577 509.32 784.882 506.033 778.262 499.46C771.688 492.839 768.401 484.144 768.401 473.375C768.401 462.325 771.781 453.467 778.541 446.8C785.301 440.087 794.276 436.73 805.465 436.73ZM849.873 508.201V501.767L857.495 501.208L859.523 499.04V449.598H849.173V443.863L870.223 437.15H877.146L876.517 451.766C878.988 449.155 881.622 446.637 884.419 444.213C887.217 441.742 890.154 439.411 893.231 437.22C894.023 437.08 894.653 436.986 895.119 436.94C895.632 436.893 896.075 436.87 896.448 436.87C897.986 436.87 899.525 437.08 901.063 437.499C902.648 437.872 904.257 438.478 905.889 439.318L904.07 459.108H896.588C895.515 457.337 894.21 456.031 892.671 455.192C891.179 454.353 889.384 453.933 887.286 453.933C886.074 453.933 884.606 454.283 882.881 454.982C881.202 455.635 879.291 456.614 877.146 457.92V499.04L879.244 501.208L889.454 501.767V508.201H849.873ZM918.057 448.898H908.756V443.444L919.316 437.429L926.798 422.534H935.82V440.297H957.009V448.898H935.82V484.564C935.82 489.925 936.682 493.585 938.407 495.543C940.132 497.501 943.233 498.481 947.708 498.481C949.48 498.481 951.112 498.411 952.604 498.271C954.142 498.084 955.611 497.828 957.009 497.501V504.355C952.907 505.847 948.99 506.989 945.261 507.782C941.578 508.528 938.197 508.9 935.12 508.9C932.603 508.9 930.365 508.644 928.407 508.131C926.495 507.618 924.77 506.826 923.232 505.754C921.32 504.495 919.968 502.933 919.176 501.068C918.43 499.157 918.057 495.66 918.057 490.578V448.898Z" fill="#2B2B2A"/>
<path d="M578.954 464.074V465.574H580.454V464.074H578.954ZM575.737 449.178L574.5 450.027L574.506 450.036L575.737 449.178ZM555.946 449.738L557.134 450.653L557.14 450.645L555.946 449.738ZM551.61 464.074L550.111 464.016L550.052 465.574H551.61V464.074ZM597.765 490.438H599.265V487.729L596.969 489.167L597.765 490.438ZM597.765 501.068L598.51 502.37L599.265 501.939V501.068H597.765ZM542.239 499.599L541.167 500.649L541.171 500.653L542.239 499.599ZM542.449 446.94L541.366 445.902L541.366 445.902L542.449 446.94ZM589.933 445.122L588.828 446.136L588.832 446.141L589.933 445.122ZM597.765 471.696V473.196H599.265V471.696H597.765ZM550.911 471.696V470.196H549.411V471.696H550.911ZM557.065 491.347L555.939 492.338L557.065 491.347ZM580.454 464.074V462.535H577.454V464.074H580.454ZM580.454 462.535C580.454 456.559 579.36 451.753 576.967 448.32L574.506 450.036C576.403 452.757 577.454 456.856 577.454 462.535H580.454ZM576.973 448.329C574.53 444.771 570.975 442.993 566.506 442.993V445.993C570.055 445.993 572.654 447.338 574.5 450.027L576.973 448.329ZM566.506 442.993C561.653 442.993 557.692 444.961 554.752 448.83L557.14 450.645C559.515 447.521 562.593 445.993 566.506 445.993V442.993ZM554.757 448.822C551.847 452.601 550.351 457.719 550.111 464.016L553.109 464.131C553.335 458.213 554.73 453.774 557.134 450.653L554.757 448.822ZM551.61 465.574H578.954V462.574H551.61V465.574ZM596.265 490.438V501.068H599.265V490.438H596.265ZM597.021 499.766C592.223 502.507 587.395 504.555 582.535 505.918L583.345 508.806C588.462 507.372 593.517 505.223 598.51 502.37L597.021 499.766ZM582.535 505.918C577.673 507.281 572.821 507.96 567.974 507.96V510.96C573.105 510.96 578.229 510.24 583.345 508.806L582.535 505.918ZM567.974 507.96C557.631 507.96 549.461 504.789 543.307 498.546L541.171 500.653C547.978 507.557 556.964 510.96 567.974 510.96V507.96ZM543.311 498.55C537.199 492.306 534.088 484.013 534.088 473.515H531.088C531.088 484.649 534.411 493.746 541.167 500.649L543.311 498.55ZM534.088 473.515C534.088 462.979 537.264 454.512 543.531 447.979L541.366 445.902C534.486 453.075 531.088 462.325 531.088 473.515H534.088ZM543.531 447.979C549.842 441.401 557.947 438.09 567.974 438.09V435.09C557.208 435.09 548.296 438.679 541.366 445.902L543.531 447.979ZM567.974 438.09C577.071 438.09 583.951 440.824 588.828 446.136L591.038 444.108C585.471 438.044 577.712 435.09 567.974 435.09V438.09ZM588.832 446.141C593.721 451.423 596.265 458.961 596.265 468.969H599.265C599.265 458.463 596.588 450.103 591.034 444.103L588.832 446.141ZM596.265 468.969V471.696H599.265V468.969H596.265ZM597.765 470.196H550.911V473.196H597.765V470.196ZM549.411 471.696V472.116H552.411V471.696H549.411ZM549.411 472.116C549.411 480.523 551.528 487.326 555.939 492.338L558.191 490.356C554.396 486.045 552.411 480.027 552.411 472.116H549.411ZM555.939 492.338C560.372 497.376 566.452 499.841 573.988 499.841V496.841C567.165 496.841 561.963 494.643 558.191 490.356L555.939 492.338ZM573.988 499.841C577.94 499.841 581.947 499.157 586.002 497.806L585.053 494.96C581.275 496.219 577.589 496.841 573.988 496.841V499.841ZM586.002 497.806C590.052 496.456 594.239 494.417 598.562 491.709L596.969 489.167C592.807 491.774 588.835 493.699 585.053 494.96L586.002 497.806ZM604.409 438.478V436.978H602.909V438.478H604.409ZM638.886 438.478H640.386V436.978H638.886V438.478ZM638.886 444.493L639.114 445.975L640.386 445.779V444.493H638.886ZM633.431 445.332L633.203 443.849L632.401 443.973L632.066 444.711L633.431 445.332ZM632.732 446.87L631.366 446.25L631.02 447.012L631.487 447.707L632.732 446.87ZM644.201 463.934L642.956 464.771L644.18 466.592L645.432 464.79L644.201 463.934ZM656.649 446.031L657.88 446.887L659.224 444.955L656.905 444.553L656.649 446.031ZM649.376 444.772H647.876V446.035L649.12 446.25L649.376 444.772ZM649.376 438.478V436.978H647.876V438.478H649.376ZM675.74 438.478H677.24V436.978H675.74V438.478ZM675.74 445.052L675.925 446.541L677.24 446.378V445.052H675.74ZM667.838 446.031L667.654 444.542L667.032 444.619L666.65 445.115L667.838 446.031ZM649.516 469.808L648.327 468.893L647.658 469.761L648.283 470.663L649.516 469.808ZM670.845 500.579L669.612 501.433L669.969 501.947L670.585 502.056L670.845 500.579ZM678.398 501.907H679.898V500.648L678.658 500.43L678.398 501.907ZM678.398 508.201V509.701H679.898V508.201H678.398ZM644.9 508.201H643.4V509.701H644.9V508.201ZM644.9 502.607L644.536 501.151L643.4 501.435V502.607H644.9ZM649.935 501.348L650.299 502.803L651.058 502.613L651.337 501.882L649.935 501.348ZM650.495 499.879L651.896 500.413L652.169 499.697L651.748 499.056L650.495 499.879ZM637.907 480.718L639.16 479.894L637.932 478.025L636.669 479.87L637.907 480.718ZM624.41 500.439L623.172 499.591L621.89 501.464L624.116 501.91L624.41 500.439ZM631.753 501.907H633.253V500.678L632.047 500.436L631.753 501.907ZM631.753 508.201V509.701H633.253V508.201H631.753ZM603.989 508.201H602.489V509.701H603.989V508.201ZM603.989 501.907L603.707 500.434L602.489 500.667V501.907H603.989ZM612.381 500.299L612.664 501.772L613.215 501.666L613.562 501.224L612.381 500.299ZM632.452 474.703L633.632 475.629L634.318 474.755L633.682 473.844L632.452 474.703ZM612.521 446.171L613.751 445.312L613.376 444.775L612.726 444.685L612.521 446.171ZM604.409 445.052H602.909V446.359L604.204 446.538L604.409 445.052ZM604.409 439.978H638.886V436.978H604.409V439.978ZM637.386 438.478V444.493H640.386V438.478H637.386ZM638.658 443.01L633.203 443.849L633.659 446.814L639.114 445.975L638.658 443.01ZM632.066 444.711L631.366 446.25L634.097 447.491L634.797 445.952L632.066 444.711ZM631.487 447.707L642.956 464.771L645.446 463.097L633.977 446.034L631.487 447.707ZM645.432 464.79L657.88 446.887L655.417 445.175L642.969 463.078L645.432 464.79ZM656.905 444.553L649.632 443.294L649.12 446.25L656.393 447.509L656.905 444.553ZM650.876 444.772V438.478H647.876V444.772H650.876ZM649.376 439.978H675.74V436.978H649.376V439.978ZM674.24 438.478V445.052H677.24V438.478H674.24ZM675.556 443.563L667.654 444.542L668.022 447.52L675.925 446.541L675.556 443.563ZM666.65 445.115L648.327 468.893L650.704 470.724L669.026 446.947L666.65 445.115ZM648.283 470.663L669.612 501.433L672.078 499.724L650.748 468.954L648.283 470.663ZM670.585 502.056L678.138 503.385L678.658 500.43L671.105 499.101L670.585 502.056ZM676.898 501.907V508.201H679.898V501.907H676.898ZM678.398 506.701H644.9V509.701H678.398V506.701ZM646.4 508.201V502.607H643.4V508.201H646.4ZM645.264 504.062L650.299 502.803L649.571 499.893L644.536 501.151L645.264 504.062ZM651.337 501.882L651.896 500.413L649.093 499.345L648.533 500.814L651.337 501.882ZM651.748 499.056L639.16 479.894L636.653 481.541L649.241 500.703L651.748 499.056ZM636.669 479.87L623.172 499.591L625.648 501.286L639.145 481.565L636.669 479.87ZM624.116 501.91L631.459 503.378L632.047 500.436L624.704 498.968L624.116 501.91ZM630.253 501.907V508.201H633.253V501.907H630.253ZM631.753 506.701H603.989V509.701H631.753V506.701ZM605.489 508.201V501.907H602.489V508.201H605.489ZM604.272 503.38L612.664 501.772L612.099 498.826L603.707 500.434L604.272 503.38ZM613.562 501.224L633.632 475.629L631.272 473.778L611.201 499.373L613.562 501.224ZM633.682 473.844L613.751 445.312L611.292 447.03L631.222 475.562L633.682 473.844ZM612.726 444.685L604.614 443.566L604.204 446.538L612.316 447.657L612.726 444.685ZM605.909 445.052V438.478H602.909V445.052H605.909ZM708.958 499.599H707.458V500.815L708.647 501.067L708.958 499.599ZM713.504 500.369L713.318 501.857L713.343 501.86L713.368 501.863L713.504 500.369ZM733.435 493.096L732.244 492.183L732.239 492.19L733.435 493.096ZM734.134 455.402L732.951 456.325L732.957 456.332L732.963 456.339L734.134 455.402ZM715.182 449.738L715.52 451.199L715.533 451.196L715.546 451.193L715.182 449.738ZM708.958 451.766L708.401 450.373L707.458 450.75V451.766H708.958ZM681.755 539.601H680.255V541.101H681.755V539.601ZM681.755 532.957L681.62 531.463L680.255 531.586V532.957H681.755ZM689.517 532.258L689.652 533.752L690.237 533.699L690.63 533.263L689.517 532.258ZM691.475 530.09L692.588 531.096L692.975 530.667V530.09H691.475ZM691.475 449.598H692.975V448.098H691.475V449.598ZM681.755 449.598H680.255V451.098H681.755V449.598ZM681.755 443.863L681.293 442.436L680.255 442.772V443.863H681.755ZM702.525 437.15V435.65H702.288L702.063 435.722L702.525 437.15ZM708.958 437.15H710.458V435.65H708.958V437.15ZM708.958 445.751H707.458V448.61L709.811 446.986L708.958 445.751ZM750.988 446.311L749.818 447.25L749.822 447.254L750.988 446.311ZM748.4 497.991L749.457 499.055L749.461 499.052L748.4 497.991ZM714.833 508.061L714.723 509.557L714.742 509.559L714.761 509.56L714.833 508.061ZM709.028 507.502L709.206 506.012L707.533 505.813L707.528 507.497L709.028 507.502ZM708.958 530.37L707.458 530.365L707.456 531.019L707.934 531.465L708.958 530.37ZM711.126 532.398L710.101 533.493L710.495 533.861L711.032 533.895L711.126 532.398ZM720.008 532.957H721.508V531.549L720.102 531.46L720.008 532.957ZM720.008 539.601V541.101H721.508V539.601H720.008ZM708.647 501.067C710.225 501.402 711.782 501.665 713.318 501.857L713.69 498.88C712.242 498.699 710.769 498.45 709.27 498.132L708.647 501.067ZM713.368 501.863C714.952 502.007 716.535 502.079 718.119 502.079V499.079C716.626 499.079 715.133 499.011 713.64 498.875L713.368 501.863ZM718.119 502.079C725.007 502.079 730.561 499.376 734.631 494.001L732.239 492.19C728.755 496.792 724.099 499.079 718.119 499.079V502.079ZM734.625 494.008C738.708 488.681 740.669 481.611 740.669 472.955H737.669C737.669 481.176 735.807 487.534 732.244 492.183L734.625 494.008ZM740.669 472.955C740.669 465.241 738.945 459.015 735.305 454.465L732.963 456.339C736.036 460.181 737.669 465.657 737.669 472.955H740.669ZM735.317 454.479C731.691 449.833 726.617 447.538 720.287 447.538V450.538C725.799 450.538 729.957 452.486 732.951 456.325L735.317 454.479ZM720.287 447.538C718.6 447.538 716.774 447.793 714.819 448.282L715.546 451.193C717.32 450.749 718.897 450.538 720.287 450.538V447.538ZM714.845 448.276C712.931 448.718 710.781 449.421 708.401 450.373L709.515 453.158C711.798 452.245 713.797 451.597 715.52 451.199L714.845 448.276ZM707.458 451.766V499.599H710.458V451.766H707.458ZM683.255 539.601V532.957H680.255V539.601H683.255ZM681.889 534.451L689.652 533.752L689.382 530.764L681.62 531.463L681.889 534.451ZM690.63 533.263L692.588 531.096L690.362 529.085L688.404 531.253L690.63 533.263ZM692.975 530.09V449.598H689.975V530.09H692.975ZM691.475 448.098H681.755V451.098H691.475V448.098ZM683.255 449.598V443.863H680.255V449.598H683.255ZM682.216 445.29L702.986 438.577L702.063 435.722L681.293 442.436L682.216 445.29ZM702.525 438.65H708.958V435.65H702.525V438.65ZM707.458 437.15V445.751H710.458V437.15H707.458ZM709.811 446.986C714.274 443.903 718.252 441.682 721.751 440.292L720.643 437.504C716.868 439.004 712.687 441.353 708.106 444.517L709.811 446.986ZM721.751 440.292C725.242 438.904 728.527 438.23 731.616 438.23V435.23C728.085 435.23 724.424 436.001 720.643 437.504L721.751 440.292ZM731.616 438.23C738.921 438.23 744.957 441.196 749.818 447.25L752.157 445.372C746.761 438.651 739.884 435.23 731.616 435.23V438.23ZM749.822 447.254C754.693 453.277 757.18 460.989 757.18 470.507H760.18C760.18 460.445 757.539 452.026 752.154 445.368L749.822 447.254ZM757.18 470.507C757.18 481.657 753.861 490.409 747.34 496.93L749.461 499.052C756.647 491.866 760.18 482.296 760.18 470.507H757.18ZM747.343 496.927C740.826 503.399 732.005 506.701 720.707 506.701V509.701C732.626 509.701 742.268 506.196 749.457 499.055L747.343 496.927ZM720.707 506.701C718.773 506.701 716.838 506.655 714.904 506.563L714.761 509.56C716.743 509.654 718.725 509.701 720.707 509.701V506.701ZM714.942 506.565C713.054 506.427 711.142 506.243 709.206 506.012L708.851 508.991C710.831 509.227 712.788 509.416 714.723 509.557L714.942 506.565ZM707.528 507.497L707.458 530.365L710.458 530.374L710.528 507.506L707.528 507.497ZM707.934 531.465L710.101 533.493L712.151 531.302L709.983 529.274L707.934 531.465ZM711.032 533.895L719.913 534.454L720.102 531.46L711.221 530.901L711.032 533.895ZM718.508 532.957V539.601H721.508V532.957H718.508ZM720.008 538.101H681.755V541.101H720.008V538.101ZM792.598 494.145L791.294 494.886L791.299 494.895L792.598 494.145ZM817.214 451.975L815.915 452.726L815.92 452.735L817.214 451.975ZM831.69 446.73L830.614 447.776L830.618 447.78L831.69 446.73ZM831.27 499.53L830.229 498.45L831.27 499.53ZM778.262 499.46L777.197 500.517L777.205 500.524L778.262 499.46ZM778.541 446.8L779.595 447.868L779.598 447.865L778.541 446.8ZM804.906 442.853C799.087 442.853 794.547 445.688 791.375 451.074L793.96 452.597C796.663 448.006 800.282 445.853 804.906 445.853V442.853ZM791.375 451.074C788.247 456.388 786.762 463.685 786.762 472.815H789.762C789.762 463.949 791.214 457.26 793.96 452.597L791.375 451.074ZM786.762 472.815C786.762 482.08 788.222 489.486 791.294 494.886L793.902 493.403C791.192 488.64 789.762 481.826 789.762 472.815H786.762ZM791.299 494.895C794.461 500.366 798.974 503.267 804.766 503.267V500.267C800.208 500.267 796.609 498.087 793.896 493.394L791.299 494.895ZM804.766 503.267C810.743 503.267 815.387 500.483 818.573 495.121L815.994 493.588C813.307 498.11 809.606 500.267 804.766 500.267V503.267ZM818.573 495.121C821.707 489.848 823.19 482.498 823.19 473.235H820.19C820.19 482.247 818.735 488.977 815.994 493.588L818.573 495.121ZM823.19 473.235C823.19 464.009 821.681 456.62 818.508 451.216L815.92 452.735C818.715 457.494 820.19 464.278 820.19 473.235H823.19ZM818.513 451.225C815.344 445.743 810.78 442.853 804.906 442.853V445.853C809.569 445.853 813.209 448.044 815.915 452.726L818.513 451.225ZM805.465 438.23C816.143 438.23 824.468 441.452 830.614 447.776L832.766 445.685C825.951 438.675 816.793 435.23 805.465 435.23V438.23ZM830.618 447.78C836.765 454.06 839.911 462.625 839.911 473.654H842.911C842.911 462.026 839.575 452.642 832.762 445.681L830.618 447.78ZM839.911 473.654C839.911 484.033 836.654 492.247 830.229 498.45L832.312 500.609C839.408 493.758 842.911 484.722 842.911 473.654H839.911ZM830.229 498.45C823.8 504.657 815.226 507.82 804.346 507.82V510.82C815.845 510.82 825.22 507.456 832.312 500.609L830.229 498.45ZM804.346 507.82C793.907 507.82 785.614 504.646 779.318 498.395L777.205 500.524C784.15 507.42 793.247 510.82 804.346 510.82V507.82ZM779.326 498.403C773.075 492.107 769.901 483.814 769.901 473.375H766.901C766.901 484.474 770.301 493.572 777.197 500.517L779.326 498.403ZM769.901 473.375C769.901 462.656 773.167 454.207 779.595 447.868L777.488 445.732C770.395 452.727 766.901 461.995 766.901 473.375H769.901ZM779.598 447.865C786.029 441.479 794.598 438.23 805.465 438.23V435.23C793.954 435.23 784.574 438.695 777.484 445.736L779.598 447.865ZM849.873 508.201H848.373V509.701H849.873V508.201ZM849.873 501.767L849.763 500.271L848.373 500.373V501.767H849.873ZM857.495 501.208L857.605 502.704L858.19 502.661L858.591 502.233L857.495 501.208ZM859.523 499.04L860.619 500.065L861.023 499.632V499.04H859.523ZM859.523 449.598H861.023V448.098H859.523V449.598ZM849.173 449.598H847.673V451.098H849.173V449.598ZM849.173 443.863L848.717 442.434L847.673 442.767V443.863H849.173ZM870.223 437.15V435.65H869.99L869.767 435.721L870.223 437.15ZM877.146 437.15L878.645 437.214L878.712 435.65H877.146V437.15ZM876.517 451.766L875.018 451.701L874.845 455.714L877.606 452.797L876.517 451.766ZM884.419 444.213L885.402 445.346L885.407 445.342L885.412 445.337L884.419 444.213ZM893.231 437.22L892.97 435.742L892.637 435.801L892.361 435.998L893.231 437.22ZM895.119 436.94L894.983 435.446L894.97 435.447L895.119 436.94ZM901.063 437.499L900.669 438.946L900.694 438.953L900.72 438.959L901.063 437.499ZM905.889 439.318L907.382 439.455L907.475 438.447L906.575 437.984L905.889 439.318ZM904.07 459.108V460.608H905.439L905.564 459.246L904.07 459.108ZM896.588 459.108L895.304 459.885L895.742 460.608H896.588V459.108ZM892.671 455.192L891.936 456.5L891.944 456.504L891.953 456.509L892.671 455.192ZM882.881 454.982L883.424 456.38L883.434 456.377L883.444 456.373L882.881 454.982ZM877.146 457.92L876.366 456.638L875.646 457.077V457.92H877.146ZM877.146 499.04H875.646V499.647L876.068 500.083L877.146 499.04ZM879.244 501.208L878.166 502.251L878.575 502.673L879.162 502.706L879.244 501.208ZM889.454 501.767H890.954V500.347L889.536 500.27L889.454 501.767ZM889.454 508.201V509.701H890.954V508.201H889.454ZM851.373 508.201V501.767H848.373V508.201H851.373ZM849.982 503.263L857.605 502.704L857.385 499.712L849.763 500.271L849.982 503.263ZM858.591 502.233L860.619 500.065L858.428 498.015L856.4 500.183L858.591 502.233ZM861.023 499.04V449.598H858.023V499.04H861.023ZM859.523 448.098H849.173V451.098H859.523V448.098ZM850.673 449.598V443.863H847.673V449.598H850.673ZM849.629 445.292L870.679 438.579L869.767 435.721L848.717 442.434L849.629 445.292ZM870.223 438.65H877.146V435.65H870.223V438.65ZM875.648 437.085L875.018 451.701L878.015 451.83L878.645 437.214L875.648 437.085ZM877.606 452.797C880.042 450.223 882.641 447.739 885.402 445.346L883.437 443.079C880.603 445.535 877.933 448.087 875.427 450.734L877.606 452.797ZM885.412 445.337C888.17 442.901 891.066 440.603 894.101 438.441L892.361 435.998C889.241 438.219 886.263 440.583 883.426 443.089L885.412 445.337ZM893.491 438.697C894.269 438.559 894.856 438.474 895.268 438.432L894.97 435.447C894.449 435.499 893.777 435.6 892.97 435.742L893.491 438.697ZM895.255 438.434C895.738 438.39 896.133 438.37 896.448 438.37V435.37C896.016 435.37 895.526 435.397 894.983 435.446L895.255 438.434ZM896.448 438.37C897.848 438.37 899.254 438.561 900.669 438.946L901.458 436.052C899.795 435.599 898.124 435.37 896.448 435.37V438.37ZM900.72 438.959C902.172 439.301 903.666 439.861 905.203 440.651L906.575 437.984C904.848 437.096 903.125 436.443 901.407 436.039L900.72 438.959ZM904.395 439.18L902.577 458.971L905.564 459.246L907.382 439.455L904.395 439.18ZM904.07 457.608H896.588V460.608H904.07V457.608ZM897.871 458.332C896.686 456.375 895.2 454.863 893.39 453.875L891.953 456.509C893.22 457.2 894.344 458.299 895.304 459.885L897.871 458.332ZM893.407 453.885C891.645 452.894 889.584 452.433 887.286 452.433V455.433C889.185 455.433 890.714 455.812 891.936 456.5L893.407 453.885ZM887.286 452.433C885.806 452.433 884.135 452.855 882.317 453.592L883.444 456.373C885.076 455.711 886.343 455.433 887.286 455.433V452.433ZM882.337 453.584C880.552 454.279 878.559 455.304 876.366 456.638L877.926 459.201C880.023 457.925 881.853 456.992 883.424 456.38L882.337 453.584ZM875.646 457.92V499.04H878.646V457.92H875.646ZM876.068 500.083L878.166 502.251L880.322 500.165L878.224 497.997L876.068 500.083ZM879.162 502.706L889.372 503.265L889.536 500.27L879.326 499.71L879.162 502.706ZM887.954 501.767V508.201H890.954V501.767H887.954ZM889.454 506.701H849.873V509.701H889.454V506.701ZM918.057 448.898H919.557V447.398H918.057V448.898ZM908.756 448.898H907.256V450.398H908.756V448.898ZM908.756 443.444L908.013 442.14L907.256 442.572V443.444H908.756ZM919.316 437.429L920.058 438.733L920.452 438.508L920.656 438.103L919.316 437.429ZM926.798 422.534V421.034H925.873L925.458 421.86L926.798 422.534ZM935.82 422.534H937.32V421.034H935.82V422.534ZM935.82 440.297H934.32V441.797H935.82V440.297ZM957.009 440.297H958.509V438.797H957.009V440.297ZM957.009 448.898V450.398H958.509V448.898H957.009ZM935.82 448.898V447.398H934.32V448.898H935.82ZM952.604 498.271L952.744 499.764L952.764 499.762L952.784 499.76L952.604 498.271ZM957.009 497.501H958.509V495.611L956.668 496.041L957.009 497.501ZM957.009 504.355L957.522 505.765L958.509 505.406V504.355H957.009ZM945.261 507.782L945.558 509.252L945.565 509.25L945.572 509.249L945.261 507.782ZM928.407 508.131L928.018 509.58L928.027 509.582L928.407 508.131ZM923.232 505.754L924.09 504.523L924.073 504.512L924.057 504.501L923.232 505.754ZM919.176 501.068L917.778 501.613L917.787 501.634L917.795 501.655L919.176 501.068ZM918.057 447.398H908.756V450.398H918.057V447.398ZM910.256 448.898V443.444H907.256V448.898H910.256ZM909.498 444.747L920.058 438.733L918.573 436.126L908.013 442.14L909.498 444.747ZM920.656 438.103L928.139 423.207L925.458 421.86L917.975 436.756L920.656 438.103ZM926.798 424.034H935.82V421.034H926.798V424.034ZM934.32 422.534V440.297H937.32V422.534H934.32ZM935.82 441.797H957.009V438.797H935.82V441.797ZM955.509 440.297V448.898H958.509V440.297H955.509ZM957.009 447.398H935.82V450.398H957.009V447.398ZM934.32 448.898V484.564H937.32V448.898H934.32ZM934.32 484.564C934.32 489.967 935.164 494.131 937.282 496.535L939.533 494.552C938.2 493.039 937.32 489.884 937.32 484.564H934.32ZM937.282 496.535C939.44 498.985 943.095 499.981 947.708 499.981V496.981C943.37 496.981 940.824 496.018 939.533 494.552L937.282 496.535ZM947.708 499.981C949.519 499.981 951.198 499.909 952.744 499.764L952.464 496.777C951.026 496.912 949.441 496.981 947.708 496.981V499.981ZM952.784 499.76C954.372 499.567 955.895 499.302 957.35 498.962L956.668 496.041C955.327 496.354 953.912 496.601 952.423 496.782L952.784 499.76ZM955.509 497.501V504.355H958.509V497.501H955.509ZM956.497 502.945C952.45 504.417 948.601 505.538 944.949 506.314L945.572 509.249C949.379 508.44 953.363 507.277 957.522 505.765L956.497 502.945ZM944.963 506.311C941.357 507.042 938.078 507.4 935.12 507.4V510.4C938.317 510.4 941.798 510.013 945.558 509.252L944.963 506.311ZM935.12 507.4C932.701 507.4 930.595 507.154 928.787 506.68L928.027 509.582C930.135 510.134 932.504 510.4 935.12 510.4V507.4ZM928.796 506.682C927.043 506.212 925.478 505.491 924.09 504.523L922.374 506.984C924.063 508.161 925.948 509.025 928.018 509.58L928.796 506.682ZM924.057 504.501C922.359 503.383 921.219 502.04 920.556 500.481L917.795 501.655C918.718 503.826 920.282 505.607 922.407 507.006L924.057 504.501ZM920.573 500.523C919.941 498.904 919.557 495.67 919.557 490.578H916.557C916.557 495.65 916.918 499.409 917.778 501.613L920.573 500.523ZM919.557 490.578V448.898H916.557V490.578H919.557Z" fill="white"/>
<path d="M286.812 337.345C288.661 337.345 290.278 336.883 291.665 335.959C293.051 334.803 293.744 333.186 293.744 331.106V173.051C293.744 170.972 293.051 169.585 291.665 168.892C290.278 167.968 288.661 167.505 286.812 167.505V161.266H351.628V167.505C350.473 167.505 349.202 167.852 347.816 168.545C346.66 169.239 346.083 170.278 346.083 171.665C346.083 172.82 346.545 174.322 347.469 176.171C348.393 178.019 349.433 179.983 350.589 182.063L400.154 272.182L450.066 183.103C451.684 180.099 452.839 177.788 453.532 176.171C454.456 174.322 454.919 172.705 454.919 171.318C454.919 168.776 453.417 167.505 450.413 167.505V161.266H514.536V167.505C512.687 167.505 511.07 167.968 509.683 168.892C508.297 169.585 507.604 170.972 507.604 173.051V331.106C507.604 333.186 508.297 334.803 509.683 335.959C511.07 336.883 512.687 337.345 514.536 337.345V343.584H460.118V337.345C466.357 337.345 469.476 335.265 469.476 331.106V216.031H468.783L399.114 343.584H398.074L329.792 215.684H329.099V331.106C329.099 335.265 332.334 337.345 338.804 337.345V343.584H286.812V337.345ZM620.948 161.266V167.505C618.869 167.505 616.904 167.852 615.056 168.545C613.207 169.007 612.283 170.394 612.283 172.705C612.283 174.091 613.9 177.442 617.135 182.756C620.602 187.84 624.53 193.732 628.92 200.434C633.542 206.904 638.279 213.605 643.131 220.537C647.984 227.469 651.912 233.362 654.916 238.214L695.47 182.41C697.318 179.637 698.82 177.442 699.976 175.824C701.131 174.207 701.709 172.705 701.709 171.318C701.709 169.701 700.553 168.661 698.243 168.199C696.163 167.737 694.199 167.505 692.35 167.505V161.266H753.007V167.505C751.159 167.505 749.425 167.737 747.808 168.199C746.19 168.43 744.457 169.239 742.609 170.625C740.991 171.78 739.143 173.629 737.063 176.171C735.214 178.481 732.904 181.717 730.131 185.876L671.207 269.409V331.106C671.207 335.265 673.864 337.345 679.179 337.345V343.584H624.414V337.345C626.494 337.345 628.227 336.883 629.613 335.959C631 334.803 631.693 333.186 631.693 331.106V269.409L564.797 175.824C563.18 173.513 560.638 171.549 557.172 169.932C553.937 168.314 551.164 167.505 548.853 167.505V161.266H620.948ZM883.793 313.776C894.654 313.776 904.128 312.851 912.216 311.003C920.303 309.154 927.004 305.919 932.319 301.298C937.634 296.445 941.562 290.09 944.104 282.234C946.877 274.377 948.263 264.441 948.263 252.425C948.263 240.409 946.877 230.473 944.104 222.617C941.562 214.76 937.634 208.521 932.319 203.9C927.004 199.047 920.303 195.697 912.216 193.848C904.128 191.999 894.654 191.075 883.793 191.075H830.069V313.776H883.793ZM897.658 161.266C910.367 161.266 922.152 163.115 933.012 166.812C944.104 170.509 953.693 176.171 961.781 183.796C969.869 191.191 976.223 200.665 980.845 212.218C985.466 223.541 987.777 236.943 987.777 252.425C987.777 267.907 985.466 281.425 980.845 292.979C976.223 304.301 969.869 313.776 961.781 321.401C953.693 328.795 944.104 334.341 933.012 338.038C922.152 341.736 910.367 343.584 897.658 343.584H782.583V337.345C787.898 337.345 790.555 335.265 790.555 331.106V173.744C790.555 169.585 787.898 167.505 782.583 167.505V161.266H897.658Z" fill="#2B2B2A"/>
<path d="M286.812 337.345V335.845H285.312V337.345H286.812ZM291.665 335.959L292.497 337.207L292.563 337.162L292.625 337.111L291.665 335.959ZM291.665 168.892L290.833 170.14L290.91 170.192L290.994 170.234L291.665 168.892ZM286.812 167.505H285.312V169.005H286.812V167.505ZM286.812 161.266V159.766H285.312V161.266H286.812ZM351.628 161.266H353.128V159.766H351.628V161.266ZM351.628 167.505V169.005H353.128V167.505H351.628ZM347.816 168.545L347.145 167.204L347.093 167.229L347.044 167.259L347.816 168.545ZM347.469 176.171L346.127 176.842L346.127 176.842L347.469 176.171ZM350.589 182.063L351.903 181.34L351.9 181.335L350.589 182.063ZM400.154 272.182L398.84 272.905L400.142 275.273L401.463 272.915L400.154 272.182ZM450.066 183.103L451.375 183.836L451.381 183.825L451.387 183.814L450.066 183.103ZM453.532 176.171L452.19 175.5L452.171 175.539L452.153 175.58L453.532 176.171ZM450.413 167.505H448.913V169.005H450.413V167.505ZM450.413 161.266V159.766H448.913V161.266H450.413ZM514.536 161.266H516.036V159.766H514.536V161.266ZM514.536 167.505V169.005H516.036V167.505H514.536ZM509.683 168.892L510.354 170.234L510.438 170.192L510.515 170.14L509.683 168.892ZM509.683 335.959L508.723 337.111L508.784 337.162L508.851 337.207L509.683 335.959ZM514.536 337.345H516.036V335.845H514.536V337.345ZM514.536 343.584V345.084H516.036V343.584H514.536ZM460.118 343.584H458.618V345.084H460.118V343.584ZM460.118 337.345V335.845H458.618V337.345H460.118ZM469.476 216.031H470.976V214.531H469.476V216.031ZM468.783 216.031V214.531H467.893L467.467 215.312L468.783 216.031ZM399.114 343.584V345.084H400.004L400.431 344.303L399.114 343.584ZM398.074 343.584L396.751 344.291L397.175 345.084H398.074V343.584ZM329.792 215.684L331.115 214.978L330.691 214.184H329.792V215.684ZM329.099 215.684V214.184H327.599V215.684H329.099ZM338.804 337.345H340.304V335.845H338.804V337.345ZM338.804 343.584V345.084H340.304V343.584H338.804ZM286.812 343.584H285.312V345.084H286.812V343.584ZM286.812 338.845C288.923 338.845 290.837 338.313 292.497 337.207L290.833 334.711C289.719 335.453 288.398 335.845 286.812 335.845V338.845ZM292.625 337.111C294.407 335.625 295.244 333.555 295.244 331.106H292.244C292.244 332.816 291.695 333.981 290.704 334.806L292.625 337.111ZM295.244 331.106V173.051H292.244V331.106H295.244ZM295.244 173.051C295.244 170.63 294.405 168.585 292.335 167.55L290.994 170.234C291.697 170.585 292.244 171.313 292.244 173.051H295.244ZM292.497 167.644C290.837 166.538 288.923 166.005 286.812 166.005V169.005C288.398 169.005 289.719 169.398 290.833 170.14L292.497 167.644ZM288.312 167.505V161.266H285.312V167.505H288.312ZM286.812 162.766H351.628V159.766H286.812V162.766ZM350.128 161.266V167.505H353.128V161.266H350.128ZM351.628 166.005C350.175 166.005 348.672 166.44 347.145 167.204L348.486 169.887C349.732 169.264 350.771 169.005 351.628 169.005V166.005ZM347.044 167.259C345.421 168.233 344.583 169.77 344.583 171.665H347.583C347.583 170.787 347.9 170.244 348.587 169.832L347.044 167.259ZM344.583 171.665C344.583 173.171 345.169 174.924 346.127 176.842L348.811 175.5C347.921 173.72 347.583 172.47 347.583 171.665H344.583ZM346.127 176.842C347.063 178.712 348.113 180.696 349.277 182.792L351.9 181.335C350.753 179.271 349.724 177.326 348.811 175.5L346.127 176.842ZM349.274 182.786L398.84 272.905L401.468 271.459L351.903 181.34L349.274 182.786ZM401.463 272.915L451.375 183.836L448.757 182.37L398.845 271.449L401.463 272.915ZM451.387 183.814C453.01 180.8 454.191 178.442 454.911 176.762L452.153 175.58C451.487 177.134 450.357 179.398 448.745 182.392L451.387 183.814ZM454.874 176.842C455.855 174.878 456.419 173.024 456.419 171.318H453.419C453.419 172.386 453.058 173.766 452.19 175.5L454.874 176.842ZM456.419 171.318C456.419 169.744 455.942 168.313 454.761 167.314C453.628 166.355 452.09 166.005 450.413 166.005V169.005C451.739 169.005 452.454 169.291 452.823 169.604C453.144 169.876 453.419 170.35 453.419 171.318H456.419ZM451.913 167.505V161.266H448.913V167.505H451.913ZM450.413 162.766H514.536V159.766H450.413V162.766ZM513.036 161.266V167.505H516.036V161.266H513.036ZM514.536 166.005C512.425 166.005 510.511 166.538 508.851 167.644L510.515 170.14C511.629 169.398 512.95 169.005 514.536 169.005V166.005ZM509.012 167.55C506.943 168.585 506.104 170.63 506.104 173.051H509.104C509.104 171.313 509.651 170.585 510.354 170.234L509.012 167.55ZM506.104 173.051V331.106H509.104V173.051H506.104ZM506.104 331.106C506.104 333.555 506.94 335.625 508.723 337.111L510.643 334.806C509.653 333.981 509.104 332.816 509.104 331.106H506.104ZM508.851 337.207C510.511 338.313 512.425 338.845 514.536 338.845V335.845C512.95 335.845 511.629 335.453 510.515 334.711L508.851 337.207ZM513.036 337.345V343.584H516.036V337.345H513.036ZM514.536 342.084H460.118V345.084H514.536V342.084ZM461.618 343.584V337.345H458.618V343.584H461.618ZM460.118 338.845C463.357 338.845 466.048 338.314 467.969 337.033C469.997 335.681 470.976 333.623 470.976 331.106H467.976C467.976 332.749 467.396 333.81 466.305 334.537C465.106 335.336 463.118 335.845 460.118 335.845V338.845ZM470.976 331.106V216.031H467.976V331.106H470.976ZM469.476 214.531H468.783V217.531H469.476V214.531ZM467.467 215.312L397.798 342.865L400.431 344.303L470.099 216.75L467.467 215.312ZM399.114 342.084H398.074V345.084H399.114V342.084ZM399.398 342.878L331.115 214.978L328.469 216.391L396.751 344.291L399.398 342.878ZM329.792 214.184H329.099V217.184H329.792V214.184ZM327.599 215.684V331.106H330.599V215.684H327.599ZM327.599 331.106C327.599 333.646 328.627 335.705 330.714 337.047C332.687 338.316 335.456 338.845 338.804 338.845V335.845C335.681 335.845 333.598 335.335 332.336 334.524C331.188 333.786 330.599 332.725 330.599 331.106H327.599ZM337.304 337.345V343.584H340.304V337.345H337.304ZM338.804 342.084H286.812V345.084H338.804V342.084ZM288.312 343.584V337.345H285.312V343.584H288.312ZM620.948 161.266H622.448V159.766H620.948V161.266ZM620.948 167.505V169.005H622.448V167.505H620.948ZM615.056 168.545L615.42 170.001L615.502 169.98L615.582 169.95L615.056 168.545ZM617.135 182.756L615.854 183.536L615.874 183.569L615.896 183.601L617.135 182.756ZM628.92 200.434L627.666 201.256L627.682 201.281L627.7 201.305L628.92 200.434ZM643.131 220.537L644.36 219.677L643.131 220.537ZM654.916 238.214L653.641 239.004L654.816 240.903L656.13 239.096L654.916 238.214ZM695.47 182.41L696.683 183.292L696.701 183.267L696.718 183.242L695.47 182.41ZM698.243 168.199L697.917 169.663L697.933 169.666L697.948 169.67L698.243 168.199ZM692.35 167.505H690.85V169.005H692.35V167.505ZM692.35 161.266V159.766H690.85V161.266H692.35ZM753.007 161.266H754.507V159.766H753.007V161.266ZM753.007 167.505V169.005H754.507V167.505H753.007ZM747.808 168.199L748.02 169.684L748.122 169.669L748.22 169.641L747.808 168.199ZM742.609 170.625L743.481 171.846L743.495 171.835L743.509 171.825L742.609 170.625ZM737.063 176.171L735.902 175.221L735.897 175.227L735.892 175.234L737.063 176.171ZM730.131 185.876L731.357 186.741L731.368 186.724L731.379 186.708L730.131 185.876ZM671.207 269.409L669.981 268.545L669.707 268.933V269.409H671.207ZM679.179 337.345H680.679V335.845H679.179V337.345ZM679.179 343.584V345.084H680.679V343.584H679.179ZM624.414 343.584H622.914V345.084H624.414V343.584ZM624.414 337.345V335.845H622.914V337.345H624.414ZM629.613 335.959L630.446 337.207L630.512 337.162L630.574 337.111L629.613 335.959ZM631.693 269.409H633.193V268.928L632.913 268.537L631.693 269.409ZM564.797 175.824L563.568 176.684L563.573 176.69L563.577 176.696L564.797 175.824ZM557.172 169.932L556.501 171.273L556.519 171.282L556.537 171.291L557.172 169.932ZM548.853 167.505H547.353V169.005H548.853V167.505ZM548.853 161.266V159.766H547.353V161.266H548.853ZM619.448 161.266V167.505H622.448V161.266H619.448ZM620.948 166.005C618.698 166.005 616.555 166.381 614.529 167.141L615.582 169.95C617.254 169.323 619.039 169.005 620.948 169.005V166.005ZM614.692 167.09C613.461 167.398 612.427 168.051 611.728 169.1C611.049 170.118 610.783 171.364 610.783 172.705H613.783C613.783 171.735 613.979 171.132 614.224 170.764C614.45 170.426 614.802 170.155 615.42 170.001L614.692 167.09ZM610.783 172.705C610.783 173.299 610.947 173.954 611.167 174.597C611.395 175.267 611.726 176.041 612.145 176.91C612.984 178.648 614.226 180.861 615.854 183.536L618.417 181.976C616.81 179.337 615.625 177.218 614.847 175.605C614.457 174.799 614.181 174.143 614.006 173.628C613.821 173.088 613.783 172.804 613.783 172.705H610.783ZM615.896 183.601C619.356 188.676 623.279 194.56 627.666 201.256L630.175 199.612C625.781 192.905 621.847 187.004 618.375 181.911L615.896 183.601ZM627.7 201.305C632.318 207.771 637.052 214.469 641.902 221.397L644.36 219.677C639.505 212.741 634.765 206.036 630.141 199.562L627.7 201.305ZM641.902 221.397C646.746 228.316 650.657 234.184 653.641 239.004L656.191 237.425C653.167 232.54 649.222 226.622 644.36 219.677L641.902 221.397ZM656.13 239.096L696.683 183.292L694.256 181.528L653.703 237.332L656.13 239.096ZM696.718 183.242C698.562 180.475 700.054 178.295 701.196 176.696L698.755 174.952C697.586 176.589 696.074 178.799 694.222 181.578L696.718 183.242ZM701.196 176.696C702.457 174.93 703.209 173.126 703.209 171.318H700.209C700.209 172.283 699.804 173.483 698.755 174.952L701.196 176.696ZM703.209 171.318C703.209 170.104 702.754 169.027 701.846 168.21C700.99 167.44 699.83 166.987 698.537 166.728L697.948 169.67C698.966 169.873 699.539 170.17 699.839 170.44C700.086 170.663 700.209 170.915 700.209 171.318H703.209ZM698.568 166.734C696.397 166.252 694.323 166.005 692.35 166.005V169.005C694.074 169.005 695.929 169.221 697.917 169.663L698.568 166.734ZM693.85 167.505V161.266H690.85V167.505H693.85ZM692.35 162.766H753.007V159.766H692.35V162.766ZM751.507 161.266V167.505H754.507V161.266H751.507ZM753.007 166.005C751.033 166.005 749.16 166.252 747.396 166.756L748.22 169.641C749.691 169.221 751.284 169.005 753.007 169.005V166.005ZM747.596 166.714C745.647 166.992 743.68 167.946 741.709 169.425L743.509 171.825C745.234 170.531 746.734 169.867 748.02 169.684L747.596 166.714ZM741.737 169.404C739.964 170.67 738.019 172.634 735.902 175.221L738.224 177.121C740.267 174.624 742.018 172.89 743.481 171.846L741.737 169.404ZM735.892 175.234C734.004 177.593 731.666 180.869 728.883 185.044L731.379 186.708C734.142 182.564 736.425 179.37 738.234 177.108L735.892 175.234ZM728.905 185.011L669.981 268.545L672.433 270.274L731.357 186.741L728.905 185.011ZM669.707 269.409V331.106H672.707V269.409H669.707ZM669.707 331.106C669.707 333.528 670.499 335.577 672.275 336.967C673.982 338.302 676.367 338.845 679.179 338.845V335.845C676.676 335.845 675.075 335.348 674.124 334.604C673.243 333.914 672.707 332.843 672.707 331.106H669.707ZM677.679 337.345V343.584H680.679V337.345H677.679ZM679.179 342.084H624.414V345.084H679.179V342.084ZM625.914 343.584V337.345H622.914V343.584H625.914ZM624.414 338.845C626.716 338.845 628.758 338.332 630.446 337.207L628.781 334.711C627.696 335.434 626.271 335.845 624.414 335.845V338.845ZM630.574 337.111C632.356 335.625 633.193 333.555 633.193 331.106H630.193C630.193 332.816 629.643 333.981 628.653 334.806L630.574 337.111ZM633.193 331.106V269.409H630.193V331.106H633.193ZM632.913 268.537L566.017 174.952L563.577 176.696L630.473 270.282L632.913 268.537ZM566.026 174.964C564.213 172.374 561.429 170.263 557.806 168.572L556.537 171.291C559.847 172.835 562.146 174.653 563.568 176.684L566.026 174.964ZM557.842 168.59C554.505 166.921 551.492 166.005 548.853 166.005V169.005C550.836 169.005 553.368 169.707 556.501 171.273L557.842 168.59ZM550.353 167.505V161.266H547.353V167.505H550.353ZM548.853 162.766H620.948V159.766H548.853V162.766ZM932.319 301.298L933.303 302.429L933.317 302.417L933.33 302.405L932.319 301.298ZM944.104 282.234L942.689 281.735L942.683 281.753L942.677 281.772L944.104 282.234ZM944.104 222.617L942.677 223.078L942.683 223.097L942.689 223.116L944.104 222.617ZM932.319 203.9L931.308 205.007L931.321 205.02L931.335 205.032L932.319 203.9ZM912.216 193.848L911.881 195.31L911.881 195.31L912.216 193.848ZM830.069 191.075V189.575H828.569V191.075H830.069ZM830.069 313.776H828.569V315.276H830.069V313.776ZM933.012 166.812L932.529 168.232L932.538 168.235L933.012 166.812ZM961.781 183.796L960.752 184.888L960.76 184.895L960.769 184.903L961.781 183.796ZM980.845 212.218L979.452 212.775L979.456 212.785L980.845 212.218ZM980.845 292.979L982.233 293.546L982.237 293.536L980.845 292.979ZM961.781 321.401L962.793 322.508L962.802 322.5L962.81 322.492L961.781 321.401ZM933.012 338.038L932.538 336.615L932.529 336.618L933.012 338.038ZM782.583 343.584H781.083V345.084H782.583V343.584ZM782.583 337.345V335.845H781.083V337.345H782.583ZM782.583 167.505H781.083V169.005H782.583V167.505ZM782.583 161.266V159.766H781.083V161.266H782.583ZM883.793 315.276C894.734 315.276 904.325 314.345 912.55 312.465L911.881 309.54C903.931 311.358 894.574 312.276 883.793 312.276V315.276ZM912.55 312.465C920.835 310.571 927.772 307.239 933.303 302.429L931.335 300.166C926.237 304.599 919.771 307.737 911.881 309.54L912.55 312.465ZM933.33 302.405C938.864 297.353 942.921 290.763 945.531 282.696L942.677 281.772C940.203 289.418 936.403 295.537 931.308 300.19L933.33 302.405ZM945.518 282.733C948.367 274.662 949.763 264.543 949.763 252.425H946.763C946.763 264.34 945.387 274.092 942.689 281.735L945.518 282.733ZM949.763 252.425C949.763 240.308 948.367 230.188 945.518 222.117L942.689 223.116C945.387 230.758 946.763 240.511 946.763 252.425H949.763ZM945.531 222.155C942.92 214.084 938.857 207.597 933.303 202.768L931.335 205.032C936.41 209.445 940.204 215.436 942.677 223.078L945.531 222.155ZM933.33 202.792C927.797 197.74 920.851 194.283 912.55 192.386L911.881 195.31C919.755 197.11 926.212 200.355 931.308 205.007L933.33 202.792ZM912.55 192.386C904.325 190.506 894.734 189.575 883.793 189.575V192.575C894.574 192.575 903.931 193.493 911.881 195.31L912.55 192.386ZM883.793 189.575H830.069V192.575H883.793V189.575ZM828.569 191.075V313.776H831.569V191.075H828.569ZM830.069 315.276H883.793V312.276H830.069V315.276ZM897.658 162.766C910.22 162.766 921.84 164.593 932.529 168.232L933.496 165.392C922.464 161.637 910.514 159.766 897.658 159.766V162.766ZM932.538 168.235C943.434 171.867 952.831 177.419 960.752 184.888L962.81 182.705C954.556 174.922 944.774 169.152 933.487 165.389L932.538 168.235ZM960.769 184.903C968.669 192.126 974.903 201.403 979.452 212.775L982.237 211.661C977.543 199.926 971.069 190.255 962.793 182.689L960.769 184.903ZM979.456 212.785C983.987 223.887 986.277 237.088 986.277 252.425H989.277C989.277 236.799 986.945 223.195 982.233 211.652L979.456 212.785ZM986.277 252.425C986.277 267.761 983.988 281.083 979.452 292.422L982.237 293.536C986.945 281.768 989.277 268.053 989.277 252.425H986.277ZM979.456 292.412C974.907 303.556 968.668 312.845 960.752 320.31L962.81 322.492C971.069 314.706 977.539 305.047 982.233 293.546L979.456 292.412ZM960.769 320.294C952.847 327.537 943.444 332.98 932.538 336.615L933.487 339.461C944.764 335.702 954.54 330.054 962.793 322.508L960.769 320.294ZM932.529 336.618C921.84 340.257 910.22 342.084 897.658 342.084V345.084C910.514 345.084 922.464 343.214 933.496 339.458L932.529 336.618ZM897.658 342.084H782.583V345.084H897.658V342.084ZM784.083 343.584V337.345H781.083V343.584H784.083ZM782.583 338.845C785.395 338.845 787.78 338.302 789.486 336.967C791.263 335.577 792.055 333.528 792.055 331.106H789.055C789.055 332.843 788.519 333.914 787.637 334.604C786.686 335.348 785.086 335.845 782.583 335.845V338.845ZM792.055 331.106V173.744H789.055V331.106H792.055ZM792.055 173.744C792.055 171.322 791.263 169.274 789.486 167.884C787.78 166.549 785.395 166.005 782.583 166.005V169.005C785.086 169.005 786.686 169.502 787.637 170.246C788.519 170.936 789.055 172.007 789.055 173.744H792.055ZM784.083 167.505V161.266H781.083V167.505H784.083ZM782.583 162.766H897.658V159.766H782.583V162.766Z" fill="white"/>
</svg>
